<?xml version="1.0" encoding="utf-8"?>
<!-- Generator: Adobe Illustrator 21.1.0, SVG Export Plug-In . SVG Version: 6.00 Build 0)  -->
<svg version="1.1" id="Layer_1" xmlns="http://www.w3.org/2000/svg" xmlns:xlink="http://www.w3.org/1999/xlink" x="0px" y="0px"
	 viewBox="0 0 385 25" style="enable-background:new 0 0 385 25;" xml:space="preserve">
<style type="text/css">
	.st0{fill:#AAB7C4;}
	.st1{opacity:0.5;fill:#AAB7C4;enable-background:new    ;}
	.st2{opacity:0.75;fill:#AAB7C4;enable-background:new    ;}
</style>
<path class="st0" d="M21.7,6l-2.8,13h-3.4l2.8-13H21.7z M35.8,14.4l1.8-4.9l1,4.9H35.8z M39.6,19h3.1L40,6h-2.9
	c-0.6,0-1.2,0.4-1.4,1l-5,12h3.5l0.7-1.9h4.3C39.2,17.1,39.6,19,39.6,19z M30.8,14.7c0-3.4-4.7-3.6-4.7-5.1c0.1-0.7,0.7-1.1,1.4-1.1
	c1.1-0.1,2.3,0.1,3.3,0.6l0.6-2.8c-1-0.4-2.1-0.6-3.1-0.6c-3.3,0-5.7,1.8-5.7,4.3c0,1.9,1.7,2.9,2.9,3.5c1.3,0.6,1.8,1,1.7,1.6
	c0,0.9-1,1.3-2,1.3c-1.2,0-2.4-0.3-3.5-0.8l-0.6,2.8c1.2,0.5,2.5,0.7,3.7,0.7C28.5,19.2,30.8,17.4,30.8,14.7 M16.9,6l-5.4,13H7.9
	L5.2,8.6c0-0.5-0.4-0.9-0.8-1.1C3.4,7,2.3,6.6,1.1,6.4L1.2,6h5.7c0.8,0,1.4,0.6,1.5,1.3l1.4,7.5L13.4,6H16.9z"/>
<path class="st0" d="M164.4,11.5v-1.3c0-0.5-0.5-1-1-1H162v2.3h-1.5V5h3.7c0.9-0.1,1.8,0.5,1.9,1.4v0.5c0,0.6-0.3,1.2-0.9,1.5
	c0.5,0.3,0.8,0.9,0.7,1.5v1.6H164.4 M161.9,7.7h1.6c0.3,0.1,0.7-0.1,0.8-0.4s-0.1-0.7-0.4-0.8h-2L161.9,7.7 M183.2,11.5l-2.4-4.4
	v4.4h-3l-0.5-1.4h-2.8l-0.5,1.4h-3.2c0,0-2-0.3-2-3.1c0-3.4,1.7-3.5,2.4-3.5h1.9v1.5h-1.5c-0.7,0.1-1.2,0.7-1.1,1.4v0.5
	c0,2.2,2.6,1.5,2.7,1.5l1.9-4.9h2.1l2.3,5.9V5h2.1l2.4,4.3V5h1.5v6.6L183.2,11.5 M175.2,8.5h1.5L176,6.6L175.2,8.5 M152.5,11.5V7
	l-1.9,4.5h-1.2L147.5,7v4.5h-3l-0.5-1.4h-2.8l-0.5,1.4H139l2.5-6.6h2.1l2.3,6V5h2.4l1.7,4.1l1.7-4.1h2.4v6.6L152.5,11.5 M141.8,8.5
	h1.5l-0.7-1.9L141.8,8.5 M154.9,11.5V5h4.7v1.5h-3.2v1h3.1V9h-3.1v1.1h3.2v1.4H154.9 M166.7,11.6V5h1.5v6.6H166.7 M170,20v-1.3
	c0-0.6-0.5-1-1.1-1h-1.6V20h-1.6v-6.5h3.9c1-0.2,1.9,0.5,2,1.5v0.4c0,0.6-0.3,1.2-0.9,1.5c0.5,0.3,0.8,0.9,0.8,1.5V20H170
	 M167.4,16.2h1.7c0.3,0.1,0.7-0.1,0.8-0.4c0.1-0.3-0.1-0.7-0.4-0.8c-0.1-0.1-0.3-0.1-0.4,0h-1.7L167.4,16.2 M159.3,20h-1.4l-1.7-1.9
	l-1.7,1.9h-6v-6.5h5.9l1.8,2.1l1.9-2.1h5.1c1-0.1,1.9,0.5,2,1.5v0.4c0,1.9-0.7,2.5-2.8,2.5h-1.6V20H159.3 M157.3,16.8l2,2.3v-4.5
	L157.3,16.8 M150.1,18.6h3.4l1.6-1.8l-1.6-1.8h-3.4v1h3.3v1.5h-3.3V18.6 M160.9,16.2h1.7c0.3,0.1,0.7-0.1,0.8-0.4
	c0.1-0.3-0.1-0.7-0.4-0.8c-0.1-0.1-0.3-0.1-0.4,0h-1.7L160.9,16.2 M181,20h-2.9v-1.5h2.5c0,0,0.9,0.1,0.9-0.5s-1.4-0.5-1.4-0.5
	c-1.1,0.2-2-0.6-2.2-1.6v-0.3c-0.1-1,0.7-1.9,1.7-2h3.4V15h-2.5c0,0-0.9-0.2-0.9,0.5c0,0.5,1.2,0.5,1.2,0.5s2.5-0.2,2.5,1.8
	c0.1,1.1-0.6,2.1-1.8,2.3h-0.4L181,20 M172.4,20v-6.5h5V15H174v1h3.3v1.5H174v1.1h3.4V20L172.4,20 M186.6,20h-2.9v-1.5h2.5
	c0,0,0.9,0.1,0.9-0.5s-1.4-0.5-1.4-0.5c-1.1,0.2-2-0.6-2.2-1.7v-0.3c-0.1-1,0.7-1.9,1.7-2h3.4V15h-2.5c0,0-0.9-0.2-0.9,0.5
	c0,0.5,1.2,0.5,1.2,0.5s2.5-0.2,2.5,1.8c0.1,1.1-0.6,2.1-1.8,2.3h-0.4C186.7,20,186.7,20,186.6,20"/>
<g>
	<path class="st0" d="M83.2,10c-0.6,0-1.4,0.2-1.8,0.9c-0.3-0.5-0.9-0.9-1.7-0.9c-0.5,0-1.1,0.1-1.5,0.7v-0.6h-1.1V15h1.1v-2.7
		c0-0.8,0.6-1.3,1.3-1.3c0.7,0,1.1,0.5,1.1,1.3V15h1.1v-2.7c0-0.8,0.6-1.3,1.3-1.3c0.7,0,1.1,0.5,1.1,1.3V15h1.1v-3
		C85.2,10.8,84.4,10,83.2,10z M90.1,10.8c-0.3-0.4-0.8-0.7-1.5-0.7c-1.4,0-2.4,1.1-2.4,2.6s1.1,2.6,2.4,2.6c0.7,0,1.2-0.3,1.5-0.7
		V15h1.1v-4.9h-1.1V10.8z M88.7,14.2c-0.9,0-1.5-0.7-1.5-1.6c0-0.9,0.6-1.6,1.5-1.6s1.5,0.7,1.5,1.6S89.6,14.2,88.7,14.2z
		 M94.9,12.1L94.4,12c-0.4-0.1-0.8-0.2-0.8-0.5s0.3-0.6,0.9-0.6s1.2,0.2,1.5,0.4l0.5-0.8c-0.5-0.3-1.2-0.5-2-0.5c-1.2,0-2,0.6-2,1.6
		c0,0.8,0.6,1.3,1.6,1.4l0.5,0.1c0.6,0.1,0.8,0.3,0.8,0.5c0,0.4-0.4,0.6-1.1,0.6c-0.8,0-1.3-0.2-1.6-0.5l-0.5,0.8
		c0.7,0.5,1.6,0.6,2.1,0.6c1.4,0,2.2-0.7,2.2-1.6C96.6,12.7,96,12.3,94.9,12.1z M100.3,14.2c-0.4,0-0.8-0.3-0.8-0.9v-2.1h1.9v-1
		h-1.9V8.7h-1.1v1.5h-1v1h1v2.1c0,1.3,0.6,1.9,1.7,1.9c0.6,0,1.1-0.2,1.5-0.5l-0.4-0.9C100.9,14,100.6,14.2,100.3,14.2z M104.7,10
		c-1.4,0-2.4,1-2.4,2.6s1,2.6,2.5,2.6c0.7,0,1.4-0.2,2-0.7l-0.5-0.8c-0.4,0.3-0.9,0.5-1.4,0.5c-0.7,0-1.3-0.4-1.4-1.2h3.6v-0.4
		C107,11.1,106.1,10,104.7,10z M103.4,12.2c0.1-0.7,0.5-1.2,1.3-1.2c0.7,0,1.1,0.4,1.2,1.2H103.4z M109.3,10.7v-0.6h-1.1V15h1.1
		v-2.7c0-0.8,0.5-1.3,1.2-1.3c0.3,0,0.6,0.1,0.8,0.2l0.3-1.1c-0.2-0.1-0.5-0.1-0.8-0.1C110.1,10,109.6,10.2,109.3,10.7z M114.3,11
		c0.5,0,0.8,0.2,1.2,0.5l0.7-0.7c-0.4-0.5-1.1-0.8-1.8-0.8c-1.5,0-2.6,1.1-2.6,2.6s1,2.6,2.6,2.6c0.7,0,1.4-0.3,1.8-0.8l-0.7-0.7
		c-0.3,0.3-0.7,0.5-1.2,0.5c-0.8,0-1.4-0.6-1.4-1.6S113.5,11,114.3,11z M120.7,10.8c-0.3-0.4-0.8-0.7-1.5-0.7
		c-1.4,0-2.4,1.1-2.4,2.6s1.1,2.6,2.4,2.6c0.7,0,1.2-0.3,1.5-0.7V15h1.1v-4.9h-1.1C120.7,10.1,120.7,10.8,120.7,10.8z M119.3,14.2
		c-0.9,0-1.5-0.7-1.5-1.6c0-0.9,0.6-1.6,1.5-1.6s1.5,0.7,1.5,1.6S120.2,14.2,119.3,14.2z M124.4,10.7v-0.6h-1.1V15h1.1v-2.7
		c0-0.8,0.5-1.3,1.2-1.3c0.3,0,0.6,0.1,0.8,0.2l0.3-1.1c-0.2-0.1-0.5-0.1-0.8-0.1C125.2,10,124.7,10.2,124.4,10.7z M130.8,7.7v3
		c-0.3-0.4-0.8-0.7-1.5-0.7c-1.4,0-2.4,1.1-2.4,2.6s1.1,2.6,2.4,2.6c0.7,0,1.2-0.3,1.5-0.7V15h1.1V7.7
		C131.9,7.7,130.8,7.7,130.8,7.7z M129.4,14.2c-0.9,0-1.5-0.7-1.5-1.6c0-0.9,0.6-1.6,1.5-1.6s1.5,0.7,1.5,1.6S130.3,14.2,129.4,14.2
		z M57.2,12.6c0-2.4,1.1-4.5,2.8-5.9c-1.3-1-2.9-1.6-4.6-1.6C51.3,5,48,8.4,48,12.6s3.3,7.6,7.4,7.6c1.7,0,3.3-0.6,4.6-1.6
		C58.3,17.1,57.2,15,57.2,12.6z"/>
	<path class="st1" d="M64.6,5c-1.7,0-3.3,0.6-4.6,1.6c1.7,1.4,2.8,3.5,2.8,5.9S61.7,17,60,18.4c1.3,1,2.9,1.6,4.6,1.6
		c4.1,0,7.4-3.4,7.4-7.5S68.7,5,64.6,5z"/>
	<path class="st2" d="M62.8,12.6c0-2.4-1.1-4.5-2.8-5.9c-1.7,1.4-3.8,3.5-3.8,5.9s2,4.5,3.8,5.9C61.7,17.1,62.8,15,62.8,12.6z"/>
</g>
</svg>
